<?xml version="1.0" encoding="utf-8"?>
<!-- Generator: Adobe Illustrator 16.0.4, SVG Export Plug-In . SVG Version: 6.00 Build 0)  -->
<!DOCTYPE svg PUBLIC "-//W3C//DTD SVG 1.1//EN" "http://www.w3.org/Graphics/SVG/1.1/DTD/svg11.dtd">
<svg version="1.1" id="Layer_1" xmlns="http://www.w3.org/2000/svg" xmlns:xlink="http://www.w3.org/1999/xlink" x="0px" y="0px"
	 width="50px" height="50px" viewBox="0 0 50 50" enable-background="new 0 0 50 50" xml:space="preserve">
<g>
	<path d="M27.771,17.641l-1.205-1.246c-0.521,0.418-0.978,0.899-1.349,1.433l1.542,0.885C27.037,18.313,27.376,17.955,27.771,17.641
		z"/>
	<path d="M35.955,18.653l1.524-0.909c-0.383-0.529-0.844-1.004-1.371-1.413l-1.183,1.26C35.321,17.899,35.67,18.254,35.955,18.653z"
		/>
	<path d="M30.558,16.459l-0.267-1.639c-0.688,0.093-1.358,0.276-1.99,0.543l0.772,1.501C29.543,16.666,30.042,16.529,30.558,16.459z
		"/>
	<path d="M34.354,15.327c-0.633-0.259-1.304-0.434-1.996-0.518l-0.24,1.643c0.516,0.062,1.018,0.192,1.488,0.385L34.354,15.327z"/>
	<rect x="24.087" y="26.568" width="1.823" height="1.654"/>
	<rect x="24.087" y="29.352" width="1.823" height="1.652"/>
	<rect x="24.087" y="23.787" width="1.823" height="1.653"/>
	<rect x="24.087" y="19.388" width="1.823" height="1.654"/>
	<path d="M15.011,17.641l-1.205-1.246c-0.521,0.418-0.978,0.899-1.349,1.433l1.542,0.885C14.276,18.313,14.617,17.955,15.011,17.641
		z"/>
	<path d="M23.194,18.653l1.523-0.909c-0.383-0.529-0.843-1.004-1.369-1.413l-1.184,1.26C22.562,17.899,22.909,18.254,23.194,18.653z
		"/>
	<path d="M17.797,16.459l-0.267-1.639c-0.689,0.093-1.357,0.276-1.99,0.543l0.771,1.501C16.782,16.666,17.284,16.529,17.797,16.459z
		"/>
	<path d="M21.597,15.327c-0.633-0.259-1.306-0.434-1.998-0.518l-0.24,1.643c0.516,0.062,1.019,0.192,1.492,0.385L21.597,15.327z"/>
	<path d="M39.625,25.333c-4.489-2.377-9.547-3.633-14.626-3.633s-10.137,1.256-14.626,3.633l-0.44,0.234l5.096,9.625l0.443-0.234
		c5.848-3.096,13.209-3.096,19.057,0l0.441,0.234l5.098-9.625L39.625,25.333z M34.551,33.847c-2.954-1.478-6.247-2.254-9.552-2.254
		s-6.598,0.778-9.552,2.254l-4.162-7.86c4.233-2.151,8.964-3.287,13.714-3.287s9.48,1.135,13.714,3.287L34.551,33.847z"/>
</g>
</svg>
