<?xml version="1.0" encoding="utf-8"?>
<!-- Generator: Adobe Illustrator 16.0.4, SVG Export Plug-In . SVG Version: 6.00 Build 0)  -->
<!DOCTYPE svg PUBLIC "-//W3C//DTD SVG 1.1//EN" "http://www.w3.org/Graphics/SVG/1.1/DTD/svg11.dtd">
<svg version="1.1" id="Layer_1" xmlns="http://www.w3.org/2000/svg" xmlns:xlink="http://www.w3.org/1999/xlink" x="0px" y="0px"
	 width="50px" height="50px" viewBox="0 0 50 50" enable-background="new 0 0 50 50" xml:space="preserve">
<path d="M25,11.5c-7.443,0-13.5,6.056-13.5,13.5c0,7.443,6.057,13.5,13.5,13.5S38.5,32.443,38.5,25C38.5,17.556,32.443,11.5,25,11.5
	z M25,26.371c-0.757,0-1.372-0.615-1.372-1.371s0.615-1.371,1.372-1.371s1.372,0.615,1.372,1.371S25.757,26.371,25,26.371z
	 M26.559,22.028c-0.179-0.094-0.363-0.17-0.559-0.231v-7.33c2.169,0.204,4.148,1.062,5.738,2.379L26.559,22.028z M24,21.797
	c-0.193,0.061-0.38,0.137-0.559,0.231l-5.182-5.182c1.59-1.316,3.57-2.175,5.739-2.379L24,21.797L24,21.797z M22.027,23.442
	c-0.094,0.178-0.17,0.363-0.23,0.558h-7.329c0.204-2.168,1.062-4.149,2.38-5.739L22.027,23.442z M21.797,26
	c0.061,0.195,0.137,0.38,0.23,0.559l-5.182,5.181c-1.316-1.591-2.175-3.571-2.379-5.739H21.797z M23.441,27.973
	c0.179,0.094,0.363,0.17,0.559,0.23v7.33c-2.169-0.204-4.148-1.062-5.738-2.379L23.441,27.973z M26,28.203
	c0.193-0.061,0.38-0.137,0.559-0.23l5.182,5.182c-1.59,1.316-3.57,2.175-5.739,2.379L26,28.203L26,28.203z M27.973,26.559
	c0.094-0.179,0.17-0.363,0.23-0.559h7.329c-0.204,2.168-1.062,4.148-2.38,5.739L27.973,26.559z M28.203,24
	c-0.061-0.195-0.137-0.38-0.23-0.558l5.182-5.181c1.316,1.59,2.175,3.571,2.379,5.739H28.203z M32.093,16.493
	c-1.683-1.405-3.786-2.318-6.093-2.525v-0.417c2.42,0.21,4.627,1.168,6.387,2.648L32.093,16.493z M24,13.968
	c-2.307,0.208-4.41,1.12-6.093,2.525l-0.294-0.294c1.76-1.479,3.967-2.438,6.387-2.648V13.968z M16.493,17.907
	c-1.405,1.683-2.318,3.787-2.525,6.093h-0.417c0.211-2.42,1.168-4.627,2.648-6.387L16.493,17.907z M13.968,26
	c0.207,2.307,1.12,4.41,2.525,6.093l-0.294,0.294c-1.48-1.76-2.438-3.967-2.648-6.387H13.968z M17.907,33.507
	c1.683,1.405,3.786,2.318,6.093,2.525v0.417c-2.42-0.21-4.627-1.168-6.387-2.648L17.907,33.507z M26,36.032
	c2.307-0.208,4.41-1.12,6.093-2.525l0.294,0.294c-1.76,1.479-3.967,2.438-6.387,2.648V36.032L26,36.032z M33.507,32.093
	c1.405-1.683,2.318-3.786,2.525-6.093h0.417c-0.211,2.42-1.168,4.627-2.648,6.387L33.507,32.093z M36.032,24
	c-0.207-2.306-1.12-4.41-2.525-6.093l0.294-0.294c1.48,1.76,2.438,3.967,2.648,6.387H36.032z"/>
</svg>
