<?xml version="1.0" encoding="utf-8"?>
<!-- Generator: Adobe Illustrator 16.0.4, SVG Export Plug-In . SVG Version: 6.00 Build 0)  -->
<!DOCTYPE svg PUBLIC "-//W3C//DTD SVG 1.1//EN" "http://www.w3.org/Graphics/SVG/1.1/DTD/svg11.dtd">
<svg version="1.1" id="Layer_1" xmlns="http://www.w3.org/2000/svg" xmlns:xlink="http://www.w3.org/1999/xlink" x="0px" y="0px"
	 width="50px" height="50px" viewBox="0 0 50 50" enable-background="new 0 0 50 50" xml:space="preserve">
<path d="M36.58,30.035v-3.229h-1.463c-0.26-1.625-0.896-3.121-1.824-4.396l1.037-1.037l-2.283-2.283l-1.037,1.037
	c-1.275-0.927-2.771-1.564-4.396-1.823V16.84h-3.228v1.464c-1.624,0.259-3.117,0.896-4.396,1.823l-1.035-1.037l-2.284,2.283
	l1.037,1.037c-0.929,1.277-1.563,2.772-1.823,4.396H13.42v3.229h1.463c0.26,1.624,0.895,3.119,1.823,4.396l-1.037,1.036l2.284,2.283
	l1.035-1.037c1.277,0.927,2.771,1.563,4.396,1.823v1.464h3.228v-1.464c1.625-0.26,3.119-0.896,4.396-1.823l1.037,1.037l2.283-2.283
	l-1.037-1.036c0.93-1.276,1.564-2.771,1.824-4.396H36.58z M32.027,28.42c0,3.875-3.152,7.027-7.027,7.027
	c-3.875,0-7.027-3.152-7.027-7.027s3.152-7.027,7.027-7.027C28.875,21.393,32.027,24.545,32.027,28.42z M25,22.7
	c-3.154,0-5.721,2.566-5.721,5.72c0,3.154,2.566,5.721,5.721,5.721c3.154,0,5.72-2.566,5.72-5.721
	C30.721,25.267,28.154,22.7,25,22.7z M25,33.064c-2.562,0-4.645-2.084-4.645-4.645s2.082-4.643,4.645-4.643
	c2.562,0,4.644,2.083,4.644,4.643S27.562,33.064,25,33.064z M28.258,15.897l-0.643,0.642l0.762,0.761l0.643-0.642
	c0.381,0.271,0.824,0.457,1.307,0.539v0.91H31.4v-0.91c0.48-0.082,0.926-0.268,1.307-0.539L33.35,17.3l0.76-0.761l-0.641-0.642
	c0.27-0.382,0.455-0.825,0.539-1.305h0.91v-1.077h-0.91c-0.084-0.48-0.27-0.923-0.539-1.306l0.641-0.643l-0.76-0.761l-0.643,0.643
	c-0.383-0.271-0.824-0.457-1.307-0.539v-0.91h-1.074v0.91c-0.48,0.082-0.924,0.268-1.307,0.539l-0.643-0.643l-0.762,0.761
	l0.643,0.643c-0.271,0.382-0.457,0.825-0.539,1.306h-0.91v1.077h0.91C27.801,15.073,27.986,15.516,28.258,15.897z M30.861,12.47
	c0.873,0,1.584,0.71,1.584,1.584c0,0.874-0.711,1.584-1.584,1.584s-1.584-0.71-1.584-1.584C29.277,13.18,29.99,12.47,30.861,12.47z"
	/>
</svg>
