<?xml version="1.0" encoding="utf-8"?>
<!-- Generator: Adobe Illustrator 16.0.4, SVG Export Plug-In . SVG Version: 6.00 Build 0)  -->
<!DOCTYPE svg PUBLIC "-//W3C//DTD SVG 1.1//EN" "http://www.w3.org/Graphics/SVG/1.1/DTD/svg11.dtd">
<svg version="1.1" id="Layer_1" xmlns="http://www.w3.org/2000/svg" xmlns:xlink="http://www.w3.org/1999/xlink" x="0px" y="0px"
	 width="50px" height="50px" viewBox="0 0 50 50" enable-background="new 0 0 50 50" xml:space="preserve">
<path d="M33.024,30.268l-5.001-5.001l4.059-4.059c1.318,0.306,2.758-0.045,3.787-1.074c1.126-1.125,1.435-2.743,0.962-4.158
	l-1.911,1.91c-0.676,0.678-1.792,0.657-2.496-0.047c-0.701-0.702-0.723-1.818-0.048-2.495l1.91-1.91
	c-1.412-0.476-3.029-0.165-4.157,0.962c-1.027,1.026-1.377,2.466-1.07,3.786L25,22.24l-4.057-4.057
	c0.306-1.319-0.047-2.759-1.073-3.787c-1.125-1.126-2.742-1.436-4.157-0.963l1.91,1.911c0.677,0.676,0.657,1.793-0.048,2.496
	c-0.702,0.702-1.816,0.723-2.495,0.048l-1.91-1.911c-0.474,1.413-0.164,3.032,0.964,4.158c1.025,1.028,2.465,1.377,3.786,1.072
	l4.057,4.056l-5,5c-0.91-0.063-1.84,0.239-2.533,0.936c-1.278,1.276-1.278,3.346,0,4.624c1.274,1.275,3.345,1.275,4.621,0
	c0.695-0.695,0.996-1.626,0.938-2.536L25,28.288l5.001,5.001c-0.062,0.91,0.241,1.841,0.936,2.535c1.275,1.277,3.347,1.277,4.623,0
	c1.276-1.276,1.276-3.346,0-4.623C34.865,30.506,33.934,30.204,33.024,30.268z M17.198,35.172l-1.663-0.444l-0.443-1.663
	l1.215-1.217l1.663,0.445l0.445,1.662L17.198,35.172z M34.464,34.731l-1.662,0.443l-1.217-1.217l0.444-1.662l1.663-0.445
	l1.218,1.217L34.464,34.731z"/>
</svg>
